<svg xmlns="http://www.w3.org/2000/svg" width="31.479" height="33.118" viewBox="0 0 31.479 33.118">
  <path id="_114" data-name="114" d="M30.981,4.312h-7.31a5.328,5.328,0,0,0-9.863,0H6.5A3.419,3.419,0,0,0,3,7.624V30.807a3.419,3.419,0,0,0,3.5,3.312H30.981a3.419,3.419,0,0,0,3.5-3.312V7.624A3.419,3.419,0,0,0,30.981,4.312Zm-12.242,0a1.709,1.709,0,0,1,1.749,1.656,1.751,1.751,0,0,1-3.5,0A1.709,1.709,0,0,1,18.739,4.312Zm-3.5,23.183-7-6.624,2.466-2.335,4.529,4.272L26.766,11.9l2.466,2.351Z" transform="translate(-3 -1)" fill="#fff"/>
</svg>
