<svg xmlns="http://www.w3.org/2000/svg" width="81.82" height="48.849" viewBox="0 0 81.82 48.849">
  <g id="شعار" transform="translate(-750.403 93.511) rotate(-90)">
    <path id="Path_605" data-name="Path 605" d="M157.7,68.81,135.254,50.872a3.065,3.065,0,0,0-3.714,0,1.855,1.855,0,0,0-.784,1.484v9.5H112.274a2.886,2.886,0,0,0-1.857.626,1.855,1.855,0,0,0-.784,1.484V76.624a1.854,1.854,0,0,0,.784,1.484,2.89,2.89,0,0,0,1.857.627h18.483v9.5a1.854,1.854,0,0,0,.784,1.484,3.063,3.063,0,0,0,3.714,0L157.7,71.778a1.8,1.8,0,0,0,0-2.968Z" transform="translate(-64.971 700.157)" fill="#939"/>
    <path id="Path_605-2" data-name="Path 605" d="M48.065,18.614,25.621.628a3.059,3.059,0,0,0-3.714,0,1.862,1.862,0,0,0-.784,1.488v9.522H2.641a2.881,2.881,0,0,0-1.857.628A1.861,1.861,0,0,0,0,13.754v12.7a1.86,1.86,0,0,0,.784,1.488,2.885,2.885,0,0,0,1.857.628H21.124v9.522a1.861,1.861,0,0,0,.784,1.488,3.057,3.057,0,0,0,3.714,0L48.065,21.59a1.8,1.8,0,0,0,0-2.976Z" transform="translate(93.511 832.224) rotate(180)" fill="#939"/>
  </g>
</svg>
